<svg width="29" height="29" viewBox="0 0 29 29" fill="none" xmlns="http://www.w3.org/2000/svg">
<path d="M13.3037 3.68541C7.86625 4.27749 3.625 8.89332 3.625 14.5C3.625 17.3842 4.77076 20.1503 6.81021 22.1898C8.84967 24.2292 11.6158 25.375 14.5 25.375C20.0946 25.375 24.7104 21.1458 25.3146 15.7083C25.4233 14.7537 24.3721 13.9925 23.4537 14.5604C22.4673 15.19 21.3299 15.5429 20.1603 15.5822C18.9907 15.6215 17.8321 15.3457 16.8057 14.7837C15.7793 14.2217 14.9228 13.3942 14.3258 12.3877C13.7289 11.3812 13.4134 10.2327 13.4125 9.06249C13.4125 7.78166 13.7871 6.57332 14.4275 5.57041C14.9712 4.76082 14.3792 3.60082 13.3037 3.68541Z" fill="black"/>
</svg>
